<svg xmlns="http://www.w3.org/2000/svg" width="500" height="500" viewBox="0 0 132.292 132.292"><defs><clipPath id="a"><path d="M0 595.28h841.89V0H0z"/></clipPath></defs><g clip-path="url(#a)" transform="matrix(.51794 0 0 -.51794 -243.972 237.135)"><path d="M551.417 382.488c-.729.592-1.755 1.321-3.076 2.188-.776.5-1.14.911-1.094 1.23.045.364.865.547 2.461.547 1.641-.456 3.053-.912 4.238-1.367 1.458-.593 3.053-1.436 4.785-2.53.501-.456.707-.98.616-1.572-.092-.319-.32-.775-.684-1.367l-.068-.205-2.461-3.418-2.188-3.28c1.276-.777 3.008-1.688 5.196-2.736a132.212 132.212 0 0 1 5.263-2.392c.729-.274 1.39-.456 1.983-.547.364-.092.842-.137 1.435-.137a10.196 10.196 0 0 0 3.35-.684c1.731-.683 4.215-2.119 7.451-4.306.911-.639 1.526-1.299 1.846-1.983.318-.638.364-1.185.136-1.64-.228-.41-.683-.615-1.367-.615-.729 0-1.572.25-2.529.751l-3.35 1.71c-4.421 2.187-7.861 3.918-10.322 5.195-4.375 2.278-7.885 4.238-10.527 5.88-3.373-3.556-7.315-6.815-11.826-9.777-4.467-2.917-8.842-5.127-13.125-6.63-1.231-.457-1.96-.547-2.188-.274-.273.228.296.684 1.709 1.367 4.967 2.188 10.049 5.72 15.244 10.596 5.104 4.74 8.704 9.228 10.801 13.467l-.068.547c-.137.546-.684 1.207-1.641 1.982m.342-30.557c-.639.455-1.641.911-3.008 1.368-1.367.273-2.006.615-1.914 1.025.091.455.911.728 2.461.82.82.045 1.959-.023 3.418-.205a35.466 35.466 0 0 0 2.939-.41c.911-.229 1.458-.547 1.641-.957.137-.273.137-.752 0-1.436l-.137-1.162-.273-11.62c1.822 0 4.351.044 7.588.136 4.055.091 6.926.182 8.613.273.501.137.979.274 1.435.411.228.09.547.25.958.478.728.364 1.48.57 2.255.615 1.185.091 3.121-.092 5.811-.547 1.595-.273 2.347-.957 2.256-2.05-.092-1.094-.981-1.596-2.666-1.504l-3.692.136c-4.603.091-8.317.16-11.142.206-4.922.044-9.526 0-13.809-.137-2.051 0-5.492-.16-10.322-.479-4.148-.273-7.201-.502-9.16-.683a3.785 3.785 0 0 1-1.026-.274 17.827 17.827 0 0 1-.752-.41c-.729-.41-1.459-.524-2.187-.342-1.14.228-3.236 1.094-6.289 2.598-1.14.547-1.733 1.048-1.778 1.504-.045.501.752.615 2.393.342 2.415-.41 6.357-.639 11.826-.684 3.326-.046 8.499 0 15.518.137l-.069 11.621c0 .41-.296.82-.888 1.23M635.773 369.227l23.31.342v9.365l-23.31-.342zm-5.811 16.406c-.73.365-1.823.775-3.281 1.23-1.05.274-1.527.593-1.435.958.045.455.842.774 2.392.957 3.782-.137 6.197-.434 7.246-.89.684-.272.98-.797.889-1.571v-5.811l23.31.342v5.469c-.091.547-.501 1.07-1.23 1.572-.73.547-1.732 1.048-3.008 1.504-1.05.364-1.527.729-1.435 1.094.045.364.82.592 2.324.683 1.959-.273 3.509-.524 4.648-.752 1.048-.228 1.823-.456 2.325-.683.41-.23.66-.502.752-.82.09-.183.09-.525 0-1.026v-1.846c0-4.831-.046-8.454-.137-10.87-.183-4.283-.48-6.926-.89-7.928-.546-1.231-1.207-1.914-1.981-2.051-.912-.183-1.367.637-1.367 2.46l-23.653-.41a11.374 11.374 0 0 0-.615-1.503 31.44 31.44 0 0 0-.615-1.162c-.776-.821-1.391-1.026-1.846-.616-.41.365-.684 1.185-.82 2.46l-.137 17.228v.41c-.092.547-.57 1.07-1.436 1.572m-.205-40.4c-.73.364-2.05.774-3.964 1.23-.821.182-1.186.455-1.094.82.136.41.865.684 2.187.82 2.279 0 4.078-.091 5.4-.272 1.23-.137 2.142-.32 2.735-.547.5-.183.797-.434.889-.752.09-.23.068-.547-.07-.957l-.067-.89.068-9.706c.045-.774.274-1.321.684-1.641.455-.41 1.299-.637 2.529-.683l15.449.136c1.002.046 1.823.16 2.46.342.412.137.844.342 1.3.615.684.366 1.344.616 1.983.752 1.048.182 2.62.206 4.716.069 1.094-.046 1.959-.25 2.598-.615.592-.365.957-.797 1.094-1.3.09-.454-.024-.865-.342-1.23-.365-.364-.844-.547-1.435-.547h-28.028c-2.233 0-4.011.388-5.332 1.162-1.46.82-2.187 2.006-2.187 3.555v7.998c-.092.638-.616 1.185-1.573 1.64m38.623 15.245c.274.045.592.159.957.342a8.61 8.61 0 0 0 1.778.478c.957.045 2.506-.023 4.648-.205 1.048-.092 1.846-.342 2.393-.752.5-.365.752-.798.752-1.3-.046-.455-.274-.842-.684-1.161-.502-.32-1.094-.478-1.777-.478-3.008.227-7.497.318-13.467.273-4.512 0-8.864-.092-13.057-.273 0-5.06-.046-8.613-.136-10.664-.137-1.823-.366-3.35-.684-4.58-.684-2.143-1.46-3.282-2.324-3.418-.866-.137-1.322.865-1.367 3.008v15.449c-1.87 0-4.353-.07-7.451-.205a152.92 152.92 0 0 1-7.247-.41 10.262 10.262 0 0 1-1.777-.411 98.555 98.555 0 0 1-1.094-.478c-.866-.456-1.732-.57-2.597-.342-1.186.228-3.623 1.185-7.315 2.87-1.05.548-1.504.98-1.367 1.3.137.318.797.364 1.982.137 3.282-.64 9.229-.89 17.842-.752 5.879.045 14.81.273 26.797.683l3.76.547a9.459 9.459 0 0 1 1.435.342" fill="#231f20"/><path d="M643.463 273.863h-85.04M714.33 330.877c0-62.622-50.766-113.386-113.387-113.386-62.62 0-113.385 50.764-113.385 113.386 0 62.621 50.764 113.386 113.385 113.386S714.33 393.498 714.33 330.877z" fill="none" stroke="#231f20" stroke-width="2"/><path d="M533.62 294.797a8.331 8.331 0 0 1 5.155-1.73c1.641 0 2.91.353 3.81 1.056 1.034.8 1.552 2.022 1.552 3.662 0 1.426-.498 2.51-1.495 3.252-.839.625-2.49 1.289-4.95 1.992-2.11.645-3.692 1.358-4.747 2.139-1.465 1.113-2.197 2.539-2.197 4.277 0 1.465.46 2.686 1.377 3.663 1.152 1.19 2.842 1.787 5.068 1.787a8.96 8.96 0 0 0 1.758-.176c.332-.078.772-.205 1.318-.381.411-.117.694-.195.85-.234.254-.04.47-.03.645.029l1.464.586 1.963-5.45-.468-.292c-.958 1.62-2.022 2.85-3.194 3.69-1.347.978-2.842 1.466-4.482 1.466-1.348 0-2.432-.313-3.252-.938-.938-.722-1.406-1.806-1.406-3.252 0-1.425.615-2.578 1.845-3.457.9-.644 2.315-1.25 4.248-1.816 2.383-.625 4.112-1.328 5.186-2.11 1.445-1.034 2.168-2.431 2.168-4.19 0-2.01-.684-3.544-2.05-4.598-1.212-.957-2.843-1.436-4.894-1.436-.605 0-1.259.078-1.962.234-.39.098-.918.245-1.582.44a92.66 92.66 0 0 1-.704.205 2.974 2.974 0 0 1-.468.059c-.332 0-.703-.088-1.114-.264a4.569 4.569 0 0 1-1.084-.615l-2.109 5.683.615.293c.977-1.543 2.022-2.734 3.135-3.574M552.838 310.822c-1.211-1.973-1.816-4.395-1.816-7.266 0-2.832.605-5.234 1.816-7.207 1.348-2.187 3.174-3.28 5.479-3.28 2.402 0 4.296 1.093 5.683 3.28 1.23 1.953 1.846 4.356 1.846 7.207 0 2.891-.615 5.313-1.846 7.266-1.387 2.207-3.281 3.311-5.683 3.311-2.305 0-4.131-1.104-5.48-3.31m12.687.556c1.582-2.11 2.373-4.707 2.373-7.793 0-3.067-.791-5.645-2.373-7.735-1.758-2.363-4.161-3.545-7.207-3.545-2.95 0-5.284 1.182-7.002 3.545-1.543 2.11-2.315 4.688-2.315 7.735 0 3.066.772 5.664 2.315 7.793 1.718 2.343 4.052 3.515 7.002 3.515 3.046 0 5.449-1.172 7.207-3.515M569.42 291.721h15v-1.523h-15zM590.309 295.53c0-.763.195-1.29.586-1.583.352-.273.996-.41 1.934-.41h3.28c1.817 0 3.282.547 4.395 1.64 1.016.977 1.524 2.16 1.524 3.545 0 1.368-.537 2.57-1.612 3.604-1.113 1.055-2.47 1.582-4.072 1.582h-6.035zm5.537 9.14c1.445 0 2.686.528 3.72 1.587.958.98 1.436 2.067 1.436 3.262 0 1.078-.41 1.998-1.23 2.763-.938.901-2.246 1.352-3.926 1.352h-3.017c-.9 0-1.543-.157-1.934-.47-.391-.332-.586-.872-.586-1.616v-6.878zm-10.312-11.133c1.132 0 1.894.137 2.285.41.41.274.615.803.615 1.585v16.02c0 .762-.205 1.3-.615 1.614-.43.312-1.192.468-2.285.468v.762h10.4c2.207 0 3.955-.47 5.244-1.408 1.25-.919 1.875-2.122 1.875-3.608 0-1.135-.342-2.083-1.025-2.846-.781-.88-2.002-1.555-3.662-2.025 1.953-.37 3.408-1.076 4.365-2.112.859-.938 1.289-2.16 1.289-3.667 0-1.642-.635-3.012-1.904-4.107-1.387-1.233-3.262-1.848-5.625-1.848h-10.957zM611.168 310.822c-1.211-1.973-1.816-4.395-1.816-7.266 0-2.832.605-5.234 1.816-7.207 1.348-2.187 3.174-3.28 5.479-3.28 2.402 0 4.296 1.093 5.683 3.28 1.231 1.953 1.846 4.356 1.846 7.207 0 2.891-.615 5.313-1.846 7.266-1.387 2.207-3.281 3.311-5.683 3.311-2.305 0-4.131-1.104-5.479-3.31m12.686.556c1.582-2.11 2.373-4.707 2.373-7.793 0-3.067-.791-5.645-2.373-7.735-1.758-2.363-4.161-3.545-7.207-3.545-2.95 0-5.284 1.182-7.002 3.545-1.543 2.11-2.315 4.688-2.315 7.735 0 3.066.772 5.664 2.315 7.793 1.718 2.343 4.052 3.515 7.002 3.515 3.046 0 5.449-1.172 7.207-3.515M633.258 310.822c-1.211-1.973-1.816-4.395-1.816-7.266 0-2.832.605-5.234 1.816-7.207 1.348-2.187 3.174-3.28 5.479-3.28 2.402 0 4.296 1.093 5.683 3.28 1.23 1.953 1.846 4.356 1.846 7.207 0 2.891-.615 5.313-1.846 7.266-1.387 2.207-3.281 3.311-5.683 3.311-2.305 0-4.131-1.104-5.48-3.31m12.687.556c1.582-2.11 2.373-4.707 2.373-7.793 0-3.067-.791-5.645-2.373-7.735-1.758-2.363-4.161-3.545-7.207-3.545-2.95 0-5.284 1.182-7.002 3.545-1.543 2.11-2.315 4.688-2.315 7.735 0 3.066.772 5.664 2.315 7.793 1.718 2.343 4.052 3.515 7.002 3.515 3.046 0 5.449-1.172 7.207-3.515M650.953 293.537c.957 0 1.631.156 2.021.47.411.311.616.84.616 1.581v15.996c0 .762-.205 1.3-.616 1.611-.41.313-1.083.47-2.02.47v.731h3.837l13.682-18.076v15.674c0 .586-.215 1.016-.645 1.29-.43.253-1.104.38-2.02.38v.732h6.21v-.732c-.899 0-1.573-.137-2.022-.41-.43-.274-.645-.694-.645-1.26v-19.307h-.498l-14.355 19.102v-16.2c0-.763.185-1.29.557-1.583.39-.313 1.084-.469 2.08-.469v-.762h-6.182z" fill="#231f20"/></g></svg>